<svg width="1309" height="126" xmlns="http://www.w3.org/2000/svg" xmlns:xlink="http://www.w3.org/1999/xlink" xml:space="preserve" overflow="hidden"><g transform="translate(-75 -486)"><path d="M226.253 124.795 226.253 74.198 206.683 74.198 206.683 69.1065 251.711 69.1065 251.711 74.198 232.14 74.198 232.14 124.795 226.253 124.795Z" fill="#FFFFFF" transform="matrix(1.00504 0 0 1 75 486.072)"/><path d="M261.178 124.795 261.178 69.1065 282.021 69.1065C289.075 69.1065 294.631 70.7904 298.688 74.1582 302.745 77.526 304.774 82.2065 304.774 88.1996 304.774 92.1243 303.859 95.5053 302.029 98.3428 300.199 101.18 297.587 103.355 294.193 104.866 290.799 106.378 286.741 107.134 282.021 107.134L264.44 107.134 267.065 104.429 267.065 124.795 261.178 124.795ZM267.065 104.906 264.44 102.122 281.862 102.122C287.431 102.122 291.661 100.902 294.551 98.4621 297.442 96.0225 298.887 92.6016 298.887 88.1996 298.887 83.7976 297.442 80.2971 294.551 77.8575 291.661 75.4178 287.431 74.198 281.862 74.198L264.44 74.198 267.065 71.4136 267.065 104.906ZM299.205 124.795 284.885 104.588 291.25 104.588 305.649 124.795 299.205 124.795Z" fill="#FFFFFF" transform="matrix(1.00504 0 0 1 75 486.072)"/><path d="M309.786 124.795 335.243 69.1065 341.051 69.1065 366.508 124.795 360.303 124.795 336.914 72.5273 339.301 72.5273 315.911 124.795 309.786 124.795ZM319.81 109.918 321.56 105.145 353.939 105.145 355.689 109.918 319.81 109.918Z" fill="#FFFFFF" transform="matrix(1.00504 0 0 1 75 486.072)"/><path d="M375.737 124.795 375.737 69.1065 380.589 69.1065 419.014 117.476 416.469 117.476 416.469 69.1065 422.276 69.1065 422.276 124.795 417.423 124.795 379.078 76.4255 381.624 76.4255 381.624 124.795 375.737 124.795Z" fill="#FFFFFF" transform="matrix(1.00504 0 0 1 75 486.072)"/><path d="M455.769 125.272C451.632 125.272 447.667 124.596 443.875 123.243 440.083 121.891 437.153 120.154 435.084 118.033L437.391 113.498C439.354 115.407 441.992 117.012 445.307 118.311 448.622 119.61 452.109 120.26 455.769 120.26 459.428 120.26 462.12 119.823 464.321 118.947 466.522 118.072 468.139 116.892 469.173 115.407 470.208 113.922 470.725 112.278 470.725 110.475 470.725 108.3 470.102 106.55 468.855 105.224 467.609 103.898 465.978 102.851 463.963 102.082 461.947 101.313 459.72 100.637 457.28 100.053 454.84 99.4698 452.401 98.8466 449.961 98.1837 447.521 97.5207 445.281 96.6324 443.239 95.5186 441.197 94.4048 439.553 92.9331 438.306 91.1033 437.06 89.2736 436.437 86.8737 436.437 83.9036 436.437 81.1457 437.166 78.6132 438.625 76.3062 440.083 73.9991 442.324 72.1428 445.347 70.7373 448.37 69.3319 452.242 68.6291 456.962 68.6291 460.091 68.6291 463.194 69.0667 466.27 69.9418 469.346 70.8169 471.998 72.0235 474.225 73.5615L472.236 78.2552C469.85 76.6642 467.317 75.4974 464.639 74.7548 461.961 74.0123 459.375 73.6411 456.882 73.6411 453.541 73.6411 450.783 74.0919 448.609 74.9935 446.434 75.8951 444.83 77.1017 443.796 78.6132 442.761 80.1248 442.244 81.8352 442.244 83.7445 442.244 85.919 442.867 87.6692 444.114 88.9951 445.36 90.321 447.004 91.3552 449.046 92.0978 451.088 92.8403 453.329 93.5032 455.769 94.0866 458.208 94.67 460.635 95.3065 463.048 95.9959 465.461 96.6854 467.688 97.5738 469.73 98.661 471.772 99.7483 473.416 101.194 474.663 102.997 475.909 104.8 476.532 107.16 476.532 110.077 476.532 112.782 475.79 115.288 474.305 117.595 472.82 119.902 470.552 121.758 467.503 123.164 464.453 124.569 460.542 125.272 455.769 125.272Z" fill="#FFFFFF" transform="matrix(1.00504 0 0 1 75 486.072)"/><path d="M489.341 124.795 489.341 69.1065 527.527 69.1065 527.527 74.198 495.228 74.198 495.228 124.795 489.341 124.795ZM494.591 101.167 494.591 96.0755 524.026 96.0755 524.026 101.167 494.591 101.167Z" fill="#FFFFFF" transform="matrix(1.00504 0 0 1 75 486.072)"/><path d="M567.569 125.855C562.73 125.855 558.261 125.073 554.178 123.495 550.094 121.917 546.54 119.703 543.504 116.839 540.468 113.989 538.121 110.621 536.464 106.776 534.806 102.93 533.971 98.7273 533.971 94.1794 533.971 89.6316 534.806 85.3621 536.464 81.5303 538.121 77.7116 540.468 74.3703 543.504 71.5064 546.54 68.6424 550.081 66.4281 554.138 64.8503 558.195 63.2725 562.637 62.4902 567.477 62.4902 572.316 62.4902 576.771 63.2592 580.815 64.8105 584.872 66.3618 588.413 68.5628 591.449 71.4136 594.485 74.2775 596.832 77.6321 598.49 81.4772 600.147 85.3223 600.982 89.5653 600.982 94.1662 600.982 98.7671 600.147 102.93 598.49 106.815 596.832 110.7 594.472 114.068 591.449 116.919 588.413 119.783 584.872 121.984 580.815 123.522 576.758 125.073 572.343 125.842 567.556 125.842ZM567.477 113.856C570.221 113.856 572.74 113.379 575.047 112.411 577.355 111.443 579.383 110.077 581.133 108.3 582.884 106.524 584.236 104.455 585.204 102.082 586.172 99.7217 586.649 97.0832 586.649 94.1662 586.649 91.2492 586.172 88.6106 585.204 86.2505 584.236 83.8904 582.884 81.8219 581.133 80.032 579.383 78.2552 577.355 76.8763 575.047 75.9216 572.74 74.9537 570.221 74.4764 567.477 74.4764 564.732 74.4764 562.199 74.9537 559.866 75.9216 557.532 76.8896 555.504 78.2552 553.78 80.032 552.056 81.8087 550.717 83.8771 549.749 86.2505 548.781 88.6106 548.304 91.2492 548.304 94.1662 548.304 97.0832 548.781 99.7217 549.749 102.082 550.717 104.442 552.056 106.524 553.78 108.3 555.504 110.077 557.532 111.456 559.866 112.411 562.199 113.365 564.732 113.856 567.477 113.856Z" fill="#FFFFFF" transform="matrix(1.00504 0 0 1 75 486.072)"/><path d="M613.539 124.795 613.539 69.1065 634.382 69.1065C641.436 69.1065 646.991 70.7904 651.049 74.1582 655.106 77.526 657.135 82.2065 657.135 88.1996 657.135 92.1243 656.22 95.5053 654.39 98.3428 652.56 101.18 649.948 103.355 646.554 104.866 643.159 106.378 639.102 107.134 634.382 107.134L616.8 107.134 619.426 104.429 619.426 124.795 613.539 124.795ZM619.426 104.906 616.8 102.122 634.223 102.122C639.792 102.122 644.021 100.902 646.912 98.4621 649.802 96.0225 651.248 92.6016 651.248 88.1996 651.248 83.7976 649.802 80.2971 646.912 77.8575 644.021 75.4178 639.792 74.198 634.223 74.198L616.8 74.198 619.426 71.4136 619.426 104.906ZM651.566 124.795 637.246 104.588 643.61 104.588 658.01 124.795 651.566 124.795Z" fill="#FFFFFF" transform="matrix(1.00504 0 0 1 75 486.072)"/><path d="M671.057 124.795 671.057 69.1065 675.909 69.1065 701.367 112.543 698.821 112.543 724.04 69.1065 728.893 69.1065 728.893 124.795 723.244 124.795 723.244 77.937 724.597 77.937 701.367 117.714 698.583 117.714 675.194 77.937 676.705 77.937 676.705 124.795 671.057 124.795Z" fill="#FFFFFF" transform="matrix(1.00504 0 0 1 75 486.072)"/><path d="M738.042 124.795 763.499 69.1065 769.307 69.1065 794.764 124.795 788.559 124.795 765.17 72.5273 767.556 72.5273 744.167 124.795 738.042 124.795ZM748.066 109.918 749.816 105.145 782.194 105.145 783.945 109.918 748.066 109.918Z" fill="#FFFFFF" transform="matrix(1.00504 0 0 1 75 486.072)"/><path d="M811.948 124.795 811.948 74.198 792.377 74.198 792.377 69.1065 837.405 69.1065 837.405 74.198 817.835 74.198 817.835 124.795 811.948 124.795Z" fill="#FFFFFF" transform="matrix(1.00504 0 0 1 75 486.072)"/><path d="M846.793 124.795 846.793 69.1065 852.68 69.1065 852.68 124.795 846.793 124.795Z" fill="#FFFFFF" transform="matrix(1.00504 0 0 1 75 486.072)"/><path d="M895.162 125.272C890.972 125.272 887.087 124.569 883.507 123.164 879.927 121.758 876.825 119.77 874.199 117.197 871.574 114.625 869.532 111.628 868.074 108.208 866.615 104.787 865.886 101.034 865.886 96.9506 865.886 92.8668 866.615 89.1145 868.074 85.6936 869.532 82.2728 871.574 79.2762 874.199 76.7039 876.825 74.1317 879.914 72.1428 883.468 70.7373 887.021 69.3319 890.919 68.6291 895.162 68.6291 899.405 68.6291 903.224 69.3319 906.777 70.7373 910.331 72.1428 913.42 74.1184 916.045 76.6642 918.67 79.2099 920.712 82.2065 922.171 85.6538 923.629 89.1012 924.359 92.8668 924.359 96.9506 924.359 101.034 923.629 104.8 922.171 108.247 920.712 111.695 918.67 114.691 916.045 117.237 913.42 119.783 910.331 121.758 906.777 123.164 903.224 124.569 899.352 125.272 895.162 125.272ZM895.162 120.021C898.503 120.021 901.593 119.451 904.43 118.311 907.268 117.171 909.734 115.553 911.829 113.458 913.924 111.363 915.555 108.924 916.721 106.139 917.888 103.355 918.472 100.292 918.472 96.9506 918.472 93.6093 917.888 90.5464 916.721 87.762 915.555 84.9776 913.924 82.5379 911.829 80.443 909.734 78.3481 907.268 76.7305 904.43 75.5902 901.593 74.4499 898.503 73.8797 895.162 73.8797 891.821 73.8797 888.718 74.4499 885.854 75.5902 882.99 76.7305 880.497 78.3481 878.376 80.443 876.255 82.5379 874.61 84.9776 873.444 87.762 872.277 90.5464 871.693 93.6093 871.693 96.9506 871.693 100.292 872.277 103.288 873.444 106.099 874.61 108.91 876.255 111.363 878.376 113.458 880.497 115.553 882.99 117.171 885.854 118.311 888.718 119.451 891.821 120.021 895.162 120.021Z" fill="#FFFFFF" transform="matrix(1.00504 0 0 1 75 486.072)"/><path d="M937.565 124.795 937.565 69.1065 942.418 69.1065 980.842 117.476 978.297 117.476 978.297 69.1065 984.104 69.1065 984.104 124.795 979.251 124.795 940.906 76.4255 943.452 76.4255 943.452 124.795 937.565 124.795Z" fill="#FFFFFF" transform="matrix(1.00504 0 0 1 75 486.072)"/><path d="M1021.65 124.795 1021.65 69.1065 1062.31 69.1065 1062.31 77.8575 1032 77.8575 1032 124.795 1021.65 124.795ZM1031.2 103.395 1031.2 94.8026 1058.89 94.8026 1058.89 103.395 1031.2 103.395Z" fill="#FFFFFF" transform="matrix(1.00504 0 0 1 75 486.072)"/><path d="M1096.2 125.59C1088.61 125.59 1082.66 123.442 1078.34 119.146 1074.01 114.85 1071.85 108.619 1071.85 100.451L1071.85 69.1065 1082.2 69.1065 1082.2 100.133C1082.2 105.861 1083.43 110.024 1085.89 112.623 1088.36 115.222 1091.85 116.521 1096.36 116.521 1100.86 116.521 1104.34 115.222 1106.78 112.623 1109.22 110.024 1110.44 105.861 1110.44 100.133L1110.44 69.1065 1120.62 69.1065 1120.62 100.451C1120.62 108.619 1118.46 114.85 1114.14 119.146 1109.81 123.442 1103.83 125.59 1096.2 125.59Z" fill="#FFFFFF" transform="matrix(1.00504 0 0 1 75 486.072)"/><path d="M1135.1 124.795 1135.1 69.1065 1143.61 69.1065 1178.54 112.066 1174.32 112.066 1174.32 69.1065 1184.5 69.1065 1184.5 124.795 1175.99 124.795 1141.15 81.8352 1145.36 81.8352 1145.36 124.795 1135.1 124.795Z" fill="#FFFFFF" transform="matrix(1.00504 0 0 1 75 486.072)"/><path d="M1199.54 124.795 1199.54 69.1065 1223.96 69.1065C1229.9 69.1065 1235.17 70.26 1239.75 72.5671 1244.34 74.8742 1247.91 78.1227 1250.45 82.3125 1253 86.5024 1254.27 91.3818 1254.27 96.9506 1254.27 102.519 1253 107.399 1250.45 111.589 1247.91 115.779 1244.34 119.027 1239.75 121.334 1235.17 123.641 1229.9 124.795 1223.96 124.795L1199.54 124.795ZM1209.88 116.044 1223.32 116.044C1227.51 116.044 1231.13 115.248 1234.18 113.657 1237.23 112.066 1239.62 109.838 1241.34 106.974 1243.07 104.111 1243.93 100.769 1243.93 96.9506 1243.93 93.132 1243.07 89.6581 1241.34 86.8472 1239.62 84.0362 1237.23 81.8352 1234.18 80.2441 1231.13 78.653 1227.51 77.8575 1223.32 77.8575L1209.88 77.8575 1209.88 116.044Z" fill="#FFFFFF" transform="matrix(1.00504 0 0 1 75 486.072)"/><path d="M1292.18 124.795 1292.18 73.0842 1296.56 77.8575 1280.25 77.8575 1280.25 69.1065 1302.44 69.1065 1302.44 124.795 1292.18 124.795Z" fill="#FFFFFF" transform="matrix(1.00504 0 0 1 75 486.072)"/><path d="M18.6158 50.9813C14.89 50.9813 11.3233 50.3713 7.91569 49.1515 4.5081 47.9317 1.86953 46.3671-1.17764e-15 44.4578L2.08168 40.374C3.84514 42.0977 6.21852 43.5297 9.20182 44.7097 12.1851 45.8765 15.3275 46.4599 18.6158 46.4599 21.904 46.4599 24.3305 46.0621 26.3061 45.2799 28.2817 44.4976 29.7402 43.4368 30.6683 42.0977 31.5965 40.7585 32.0605 39.2867 32.0605 37.6559 32.0605 35.6935 31.5036 34.1289 30.3766 32.9356 29.2496 31.7423 27.7911 30.8009 25.9746 30.1114 24.1581 29.422 22.156 28.812 19.955 28.2817 17.7539 27.7513 15.5662 27.1944 13.3652 26.5978 11.1642 26.0011 9.14878 25.2056 7.31903 24.1979 5.47601 23.1902 4.00425 21.8775 2.87723 20.2201 1.7502 18.576 1.19332 16.4148 1.19332 13.7364 1.19332 11.257 1.84302 8.97642 3.15567 6.89474 4.46832 4.81306 6.4837 3.14241 9.20182 1.88279 11.9199 0.623178 15.4071-0.0132591 19.65-0.0132591 22.4609-0.0132591 25.2586 0.384514 28.0298 1.1668 30.8009 1.94909 33.1875 3.03634 35.1897 4.42854L33.3997 8.6582C31.2517 7.22621 28.9711 6.17874 26.558 5.50253 24.1448 4.83957 21.8245 4.49484 19.5704 4.49484 16.5606 4.49484 14.0812 4.90587 12.1188 5.71467 10.1565 6.52348 8.72449 7.61073 7.7831 8.97642 6.85496 10.3421 6.39089 11.8802 6.39089 13.5906 6.39089 15.5529 6.94777 17.1308 8.0748 18.3108 9.20182 19.5041 10.6736 20.4323 12.5166 21.1085 14.3596 21.7715 16.375 22.3814 18.5627 22.8985 20.7638 23.4288 22.9383 23.999 25.1127 24.6222 27.2872 25.2453 29.2894 26.0409 31.1324 27.0221 32.9754 28.0032 34.4472 29.3026 35.5742 30.9202 36.7012 32.5378 37.2581 34.6726 37.2581 37.2979 37.2581 39.7375 36.5951 41.9916 35.256 44.06 33.9168 46.1417 31.8749 47.8123 29.1303 49.072 26.3856 50.3448 22.8587 50.968 18.576 50.968Z" fill="#FFFFFF" transform="matrix(1.00504 0 0 1 75 486.072)"/><path d="M57.8495 50.5437 57.8495 5.01194 40.2414 5.01194 40.2414 0.424291 80.7612 0.424291 80.7612 5.01194 63.1531 5.01194 63.1531 50.5437 57.8495 50.5437Z" fill="#FFFFFF" transform="matrix(1.00504 0 0 1 75 486.072)"/><path d="M78.7591 50.5437 101.671 0.424291 106.895 0.424291 129.807 50.5437 124.225 50.5437 103.169 3.51366 105.317 3.51366 84.2616 50.557 78.7458 50.557ZM87.7753 37.1653 89.3531 32.8693 118.497 32.8693 120.074 37.1653 87.7885 37.1653Z" fill="#FFFFFF" transform="matrix(1.00504 0 0 1 75 486.072)"/><path d="M159.374 50.9813C155.556 50.9813 152.042 50.3448 148.82 49.0852 145.598 47.8256 142.801 46.0489 140.44 43.7551 138.08 41.4612 136.237 38.7696 134.925 35.667 133.612 32.5644 132.962 29.1833 132.962 25.4973 132.962 21.8112 133.612 18.4302 134.925 15.3275 136.237 12.2249 138.08 9.5333 140.48 7.23947 142.867 4.94565 145.678 3.16893 148.9 1.90931 152.122 0.649696 155.635 0.0132591 159.454 0.0132591 163.273 0.0132591 166.773 0.609919 169.942 1.80324 173.111 2.99656 175.829 4.81306 178.07 7.23947L174.782 10.6073C172.687 8.51235 170.366 7.00081 167.834 6.09919 165.301 5.19757 162.583 4.7335 159.666 4.7335 156.564 4.7335 153.713 5.25061 151.114 6.27156 148.515 7.30577 146.248 8.75101 144.312 10.6338 142.376 12.5166 140.878 14.7176 139.804 17.2236 138.73 19.7296 138.2 22.4874 138.2 25.4973 138.2 28.5071 138.73 31.1987 139.804 33.7312 140.878 36.2637 142.376 38.4647 144.312 40.3607 146.248 42.2435 148.515 43.702 151.114 44.723 153.713 45.7572 156.537 46.261 159.6 46.261 162.464 46.261 165.169 45.8367 167.728 44.9749 170.287 44.113 172.634 42.6545 174.782 40.6126L177.791 44.6169C175.405 46.7118 172.607 48.3029 169.412 49.3769 166.216 50.4509 162.875 50.9813 159.388 50.9813ZM177.778 44.6036 172.7 43.9539 172.7 25.484 177.778 25.484 177.778 44.6036Z" fill="#FFFFFF" transform="matrix(1.00504 0 0 1 75 486.072)"/><path d="M206.736 50.5437 206.736 0.424291 232.22 0.424291C238.85 0.424291 243.795 1.64413 247.044 4.07055 250.292 6.51022 251.91 9.65263 251.91 13.5243 251.91 16.0966 251.247 18.3639 249.908 20.3262 248.568 22.2886 246.659 23.8134 244.18 24.9139 241.7 26.0144 238.783 26.558 235.442 26.558L236.808 23.1239C240.295 23.1239 243.358 23.6542 246.009 24.7282 248.661 25.8022 250.716 27.3668 252.162 29.422 253.62 31.4771 254.349 33.9301 254.349 36.794 254.349 41.09 252.599 44.4578 249.086 46.8842 245.572 49.3106 240.427 50.5305 233.652 50.5305L206.736 50.5305ZM220.698 40.3077 232.578 40.3077C235.057 40.3077 236.927 39.8834 238.16 39.0481 239.406 38.2127 240.016 36.9399 240.016 35.2162 240.016 33.4925 239.393 32.2196 238.16 31.3843 236.914 30.549 235.057 30.1379 232.578 30.1379L219.69 30.1379 219.69 20.3262 230.43 20.3262C232.817 20.3262 234.607 19.9152 235.8 19.1064 236.993 18.2976 237.59 17.1042 237.59 15.5264 237.59 13.8558 236.993 12.6227 235.8 11.8404 234.607 11.0581 232.817 10.6603 230.43 10.6603L220.698 10.6603 220.698 40.3077Z" fill="#FFFFFF" transform="matrix(1.00504 0 0 1 75 486.072)"/><path d="M261.801 50.5437 261.801 0.424291 275.975 0.424291 275.975 39.3 299.815 39.3 299.815 50.5437 261.801 50.5437Z" fill="#FFFFFF" transform="matrix(1.00504 0 0 1 75 486.072)"/><path d="M328.163 51.5514C320.764 51.5514 314.997 49.5228 310.873 45.4655 306.749 41.4082 304.681 35.6803 304.681 28.2817L304.681 0.424291 318.855 0.424291 318.855 27.8441C318.855 32.1003 319.69 35.1499 321.361 37.0062 323.032 38.8624 325.352 39.8038 328.309 39.8038 331.266 39.8038 333.573 38.8757 335.217 37.0062 336.861 35.1366 337.683 32.087 337.683 27.8441L337.683 0.424291 351.711 0.424291 351.711 28.2817C351.711 35.6803 349.616 41.4082 345.453 45.4655 341.276 49.5228 335.508 51.5514 328.163 51.5514Z" fill="#FFFFFF" transform="matrix(1.00504 0 0 1 75 486.072)"/><path d="M361.456 50.5437 361.456 0.424291 400.69 0.424291 400.69 11.4559 375.418 11.4559 375.418 39.5254 401.618 39.5254 401.618 50.557 361.456 50.557ZM374.424 30.3634 374.424 19.8356 397.694 19.8356 397.694 30.3634 374.424 30.3634Z" fill="#FFFFFF" transform="matrix(1.00504 0 0 1 75 486.072)"/></g></svg>