<svg xmlns="http://www.w3.org/2000/svg" xmlns:xlink="http://www.w3.org/1999/xlink" width="1200" zoomAndPan="magnify" viewBox="0 0 900 683.04" height="900" preserveAspectRatio="xMidYMid meet" version="1.0"><defs><g/></defs><g fill="#001f3f" fill-opacity="1"><g transform="translate(211.963454, 416.091113)"><g><path d="M 2.03125 -30.984375 L 2.03125 -34.875 L 28.53125 -34.875 L 28.53125 -30.984375 L 17.515625 -30.984375 L 17.515625 0 L 13.109375 0 L 13.109375 -30.984375 Z M 2.03125 -30.984375 "/></g></g><g transform="translate(242.529867, 416.091113)"><g><path d="M 4.046875 0 L 4.046875 -34.875 L 16.203125 -34.875 C 18.847656 -34.875 21.050781 -34.414062 22.8125 -33.5 C 24.582031 -32.59375 25.90625 -31.332031 26.78125 -29.71875 C 27.65625 -28.101562 28.09375 -26.25 28.09375 -24.15625 C 28.09375 -22.050781 27.644531 -20.203125 26.75 -18.609375 C 25.863281 -17.015625 24.535156 -15.773438 22.765625 -14.890625 C 21.003906 -14.015625 18.800781 -13.578125 16.15625 -13.578125 L 6.5 -13.578125 L 6.5 -17.484375 L 16.03125 -17.484375 C 17.820312 -17.484375 19.28125 -17.75 20.40625 -18.28125 C 21.53125 -18.820312 22.363281 -19.59375 22.90625 -20.59375 C 23.445312 -21.59375 23.71875 -22.78125 23.71875 -24.15625 C 23.71875 -25.539062 23.445312 -26.742188 22.90625 -27.765625 C 22.363281 -28.796875 21.523438 -29.59375 20.390625 -30.15625 C 19.265625 -30.726562 17.796875 -31.015625 15.984375 -31.015625 L 8.453125 -31.015625 L 8.453125 0 Z M 24.125 0 L 15.703125 -15.703125 L 20.671875 -15.703125 L 29.234375 0 Z M 24.125 0 "/></g></g><g transform="translate(273.260112, 416.091113)"><g><path d="M 1.046875 0 L 13.765625 -34.875 L 18.8125 -34.875 L 31.625 0 L 26.984375 0 L 19.609375 -20.765625 C 19.140625 -22.078125 18.601562 -23.671875 18 -25.546875 C 17.40625 -27.429688 16.679688 -29.847656 15.828125 -32.796875 L 16.734375 -32.796875 C 15.878906 -29.828125 15.140625 -27.382812 14.515625 -25.46875 C 13.898438 -23.5625 13.382812 -21.992188 12.96875 -20.765625 L 5.71875 0 Z M 7.484375 -9.734375 L 7.484375 -13.59375 L 25.203125 -13.59375 L 25.203125 -9.734375 Z M 7.484375 -9.734375 "/></g></g><g transform="translate(305.93294, 416.091113)"><g><path d="M 4.046875 0 L 4.046875 -34.875 L 9.203125 -34.875 L 23.4375 -12.46875 C 23.789062 -11.925781 24.222656 -11.210938 24.734375 -10.328125 C 25.253906 -9.453125 25.8125 -8.46875 26.40625 -7.375 C 27.007812 -6.28125 27.601562 -5.125 28.1875 -3.90625 L 27.59375 -3.71875 C 27.488281 -4.957031 27.40625 -6.175781 27.34375 -7.375 C 27.289062 -8.570312 27.253906 -9.679688 27.234375 -10.703125 C 27.222656 -11.722656 27.21875 -12.5625 27.21875 -13.21875 L 27.21875 -34.875 L 31.59375 -34.875 L 31.59375 0 L 26.40625 0 L 13.734375 -19.921875 C 13.203125 -20.765625 12.644531 -21.664062 12.0625 -22.625 C 11.476562 -23.59375 10.804688 -24.738281 10.046875 -26.0625 C 9.296875 -27.394531 8.390625 -29 7.328125 -30.875 L 8.078125 -31.125 C 8.148438 -29.382812 8.210938 -27.78125 8.265625 -26.3125 C 8.328125 -24.851562 8.375 -23.585938 8.40625 -22.515625 C 8.4375 -21.441406 8.453125 -20.59375 8.453125 -19.96875 L 8.453125 0 Z M 4.046875 0 "/></g></g><g transform="translate(341.578152, 416.091113)"><g><path d="M 15.28125 0.609375 C 12.738281 0.609375 10.523438 0.1875 8.640625 -0.65625 C 6.765625 -1.507812 5.300781 -2.695312 4.25 -4.21875 C 3.207031 -5.738281 2.632812 -7.53125 2.53125 -9.59375 L 7.015625 -9.59375 C 7.109375 -8.207031 7.53125 -7.050781 8.28125 -6.125 C 9.03125 -5.195312 10.015625 -4.5 11.234375 -4.03125 C 12.460938 -3.570312 13.8125 -3.34375 15.28125 -3.34375 C 16.894531 -3.34375 18.328125 -3.597656 19.578125 -4.109375 C 20.835938 -4.628906 21.828125 -5.351562 22.546875 -6.28125 C 23.273438 -7.207031 23.640625 -8.289062 23.640625 -9.53125 C 23.640625 -10.625 23.34375 -11.523438 22.75 -12.234375 C 22.15625 -12.941406 21.335938 -13.53125 20.296875 -14 C 19.265625 -14.46875 18.078125 -14.878906 16.734375 -15.234375 L 12.59375 -16.390625 C 9.613281 -17.203125 7.34375 -18.34375 5.78125 -19.8125 C 4.21875 -21.289062 3.4375 -23.191406 3.4375 -25.515625 C 3.4375 -27.492188 3.957031 -29.21875 5 -30.6875 C 6.050781 -32.164062 7.476562 -33.316406 9.28125 -34.140625 C 11.09375 -34.960938 13.140625 -35.375 15.421875 -35.375 C 17.742188 -35.375 19.789062 -34.957031 21.5625 -34.125 C 23.332031 -33.300781 24.722656 -32.160156 25.734375 -30.703125 C 26.753906 -29.253906 27.296875 -27.601562 27.359375 -25.75 L 23.0625 -25.75 C 22.875 -27.5625 22.066406 -28.960938 20.640625 -29.953125 C 19.222656 -30.953125 17.4375 -31.453125 15.28125 -31.453125 C 13.78125 -31.453125 12.460938 -31.203125 11.328125 -30.703125 C 10.191406 -30.210938 9.304688 -29.535156 8.671875 -28.671875 C 8.035156 -27.816406 7.71875 -26.832031 7.71875 -25.71875 C 7.71875 -24.582031 8.066406 -23.648438 8.765625 -22.921875 C 9.460938 -22.203125 10.328125 -21.625 11.359375 -21.1875 C 12.398438 -20.75 13.4375 -20.390625 14.46875 -20.109375 L 18.046875 -19.140625 C 19.148438 -18.859375 20.28125 -18.476562 21.4375 -18 C 22.59375 -17.53125 23.660156 -16.925781 24.640625 -16.1875 C 25.628906 -15.457031 26.425781 -14.546875 27.03125 -13.453125 C 27.644531 -12.367188 27.953125 -11.0625 27.953125 -9.53125 C 27.953125 -7.59375 27.445312 -5.859375 26.4375 -4.328125 C 25.425781 -2.796875 23.976562 -1.585938 22.09375 -0.703125 C 20.207031 0.171875 17.9375 0.609375 15.28125 0.609375 Z M 15.28125 0.609375 "/></g></g><g transform="translate(372.050947, 416.091113)"><g><path d="M 4.046875 0 L 4.046875 -34.875 L 25.328125 -34.875 L 25.328125 -30.984375 L 8.453125 -30.984375 L 8.453125 -19.171875 L 23.78125 -19.171875 L 23.78125 -15.28125 L 8.453125 -15.28125 L 8.453125 0 Z M 4.046875 0 "/></g></g></g><g fill="#001f3f" fill-opacity="1"><g transform="translate(399.97264, 416.091113)"><g><path d="M 18.34375 0.484375 C 15.257812 0.484375 12.484375 -0.222656 10.015625 -1.640625 C 7.546875 -3.054688 5.597656 -5.097656 4.171875 -7.765625 C 2.742188 -10.441406 2.03125 -13.660156 2.03125 -17.421875 C 2.03125 -21.191406 2.742188 -24.414062 4.171875 -27.09375 C 5.597656 -29.769531 7.546875 -31.816406 10.015625 -33.234375 C 12.484375 -34.660156 15.257812 -35.375 18.34375 -35.375 C 21.4375 -35.375 24.210938 -34.660156 26.671875 -33.234375 C 29.128906 -31.816406 31.070312 -29.769531 32.5 -27.09375 C 33.925781 -24.414062 34.640625 -21.191406 34.640625 -17.421875 C 34.640625 -13.660156 33.925781 -10.441406 32.5 -7.765625 C 31.070312 -5.085938 29.128906 -3.039062 26.671875 -1.625 C 24.210938 -0.21875 21.4375 0.484375 18.34375 0.484375 Z M 18.34375 -5.859375 C 20.15625 -5.859375 21.738281 -6.300781 23.09375 -7.1875 C 24.457031 -8.070312 25.515625 -9.375 26.265625 -11.09375 C 27.023438 -12.820312 27.40625 -14.929688 27.40625 -17.421875 C 27.40625 -19.910156 27.023438 -22.019531 26.265625 -23.75 C 25.515625 -25.488281 24.457031 -26.800781 23.09375 -27.6875 C 21.738281 -28.582031 20.15625 -29.03125 18.34375 -29.03125 C 16.550781 -29.03125 14.972656 -28.578125 13.609375 -27.671875 C 12.242188 -26.773438 11.179688 -25.460938 10.421875 -23.734375 C 9.671875 -22.015625 9.296875 -19.910156 9.296875 -17.421875 C 9.296875 -14.929688 9.671875 -12.828125 10.421875 -11.109375 C 11.179688 -9.398438 12.242188 -8.097656 13.609375 -7.203125 C 14.972656 -6.304688 16.550781 -5.859375 18.34375 -5.859375 Z M 18.34375 -5.859375 "/></g></g></g><g fill="#001f3f" fill-opacity="1"><g transform="translate(436.647655, 416.091113)"><g><path d="M 4.046875 0 L 4.046875 -34.875 L 16.203125 -34.875 C 18.847656 -34.875 21.050781 -34.414062 22.8125 -33.5 C 24.582031 -32.59375 25.90625 -31.332031 26.78125 -29.71875 C 27.65625 -28.101562 28.09375 -26.25 28.09375 -24.15625 C 28.09375 -22.050781 27.644531 -20.203125 26.75 -18.609375 C 25.863281 -17.015625 24.535156 -15.773438 22.765625 -14.890625 C 21.003906 -14.015625 18.800781 -13.578125 16.15625 -13.578125 L 6.5 -13.578125 L 6.5 -17.484375 L 16.03125 -17.484375 C 17.820312 -17.484375 19.28125 -17.75 20.40625 -18.28125 C 21.53125 -18.820312 22.363281 -19.59375 22.90625 -20.59375 C 23.445312 -21.59375 23.71875 -22.78125 23.71875 -24.15625 C 23.71875 -25.539062 23.445312 -26.742188 22.90625 -27.765625 C 22.363281 -28.796875 21.523438 -29.59375 20.390625 -30.15625 C 19.265625 -30.726562 17.796875 -31.015625 15.984375 -31.015625 L 8.453125 -31.015625 L 8.453125 0 Z M 24.125 0 L 15.703125 -15.703125 L 20.671875 -15.703125 L 29.234375 0 Z M 24.125 0 "/></g></g><g transform="translate(467.3779, 416.091113)"><g><path d="M 4.046875 0 L 4.046875 -34.875 L 10.234375 -34.875 L 18.890625 -12.75 C 19.085938 -12.238281 19.316406 -11.597656 19.578125 -10.828125 C 19.835938 -10.066406 20.113281 -9.25 20.40625 -8.375 C 20.707031 -7.5 20.988281 -6.632812 21.25 -5.78125 C 21.519531 -4.925781 21.75 -4.144531 21.9375 -3.4375 L 20.953125 -3.4375 C 21.148438 -4.113281 21.378906 -4.867188 21.640625 -5.703125 C 21.910156 -6.546875 22.191406 -7.410156 22.484375 -8.296875 C 22.773438 -9.179688 23.054688 -10.015625 23.328125 -10.796875 C 23.597656 -11.585938 23.832031 -12.238281 24.03125 -12.75 L 32.5625 -34.875 L 38.765625 -34.875 L 38.765625 0 L 34.4375 0 L 34.4375 -19.984375 C 34.4375 -20.703125 34.4375 -21.519531 34.4375 -22.4375 C 34.445312 -23.351562 34.460938 -24.300781 34.484375 -25.28125 C 34.515625 -26.257812 34.539062 -27.257812 34.5625 -28.28125 C 34.582031 -29.3125 34.601562 -30.300781 34.625 -31.25 L 35.046875 -31.25 C 34.710938 -30.175781 34.359375 -29.09375 33.984375 -28 C 33.609375 -26.90625 33.25 -25.847656 32.90625 -24.828125 C 32.5625 -23.816406 32.238281 -22.894531 31.9375 -22.0625 C 31.632812 -21.238281 31.375 -20.546875 31.15625 -19.984375 L 23.296875 0 L 19.515625 0 L 11.546875 -19.984375 C 11.328125 -20.535156 11.070312 -21.21875 10.78125 -22.03125 C 10.488281 -22.84375 10.164062 -23.742188 9.8125 -24.734375 C 9.46875 -25.734375 9.101562 -26.785156 8.71875 -27.890625 C 8.332031 -29.003906 7.945312 -30.125 7.5625 -31.25 L 8.046875 -31.25 C 8.078125 -30.375 8.101562 -29.441406 8.125 -28.453125 C 8.15625 -27.460938 8.175781 -26.460938 8.1875 -25.453125 C 8.207031 -24.453125 8.222656 -23.484375 8.234375 -22.546875 C 8.253906 -21.609375 8.265625 -20.753906 8.265625 -19.984375 L 8.265625 0 Z M 4.046875 0 "/></g></g><g transform="translate(510.184921, 416.091113)"><g><path d="M 1.046875 0 L 13.765625 -34.875 L 18.8125 -34.875 L 31.625 0 L 26.984375 0 L 19.609375 -20.765625 C 19.140625 -22.078125 18.601562 -23.671875 18 -25.546875 C 17.40625 -27.429688 16.679688 -29.847656 15.828125 -32.796875 L 16.734375 -32.796875 C 15.878906 -29.828125 15.140625 -27.382812 14.515625 -25.46875 C 13.898438 -23.5625 13.382812 -21.992188 12.96875 -20.765625 L 5.71875 0 Z M 7.484375 -9.734375 L 7.484375 -13.59375 L 25.203125 -13.59375 L 25.203125 -9.734375 Z M 7.484375 -9.734375 "/></g></g></g><g fill="#001f3f" fill-opacity="1"><g transform="translate(538.64492, 416.091113)"><g><path d="M 2.03125 -30.984375 L 2.03125 -34.875 L 28.53125 -34.875 L 28.53125 -30.984375 L 17.515625 -30.984375 L 17.515625 0 L 13.109375 0 L 13.109375 -30.984375 Z M 2.03125 -30.984375 "/></g></g><g transform="translate(569.211333, 416.091113)"><g><path d="M 8.453125 -34.875 L 8.453125 0 L 4.046875 0 L 4.046875 -34.875 Z M 8.453125 -34.875 "/></g></g><g transform="translate(581.709392, 416.091113)"><g><path d="M 18.25 0.484375 C 15.257812 0.484375 12.585938 -0.242188 10.234375 -1.703125 C 7.890625 -3.171875 6.046875 -5.25 4.703125 -7.9375 C 3.359375 -10.625 2.6875 -13.785156 2.6875 -17.421875 C 2.6875 -21.066406 3.359375 -24.226562 4.703125 -26.90625 C 6.046875 -29.59375 7.890625 -31.675781 10.234375 -33.15625 C 12.585938 -34.632812 15.257812 -35.375 18.25 -35.375 C 21.269531 -35.375 23.945312 -34.632812 26.28125 -33.15625 C 28.613281 -31.675781 30.445312 -29.59375 31.78125 -26.90625 C 33.125 -24.226562 33.796875 -21.066406 33.796875 -17.421875 C 33.796875 -13.785156 33.125 -10.625 31.78125 -7.9375 C 30.445312 -5.25 28.613281 -3.171875 26.28125 -1.703125 C 23.945312 -0.242188 21.269531 0.484375 18.25 0.484375 Z M 18.25 -3.578125 C 20.34375 -3.578125 22.234375 -4.109375 23.921875 -5.171875 C 25.617188 -6.234375 26.972656 -7.789062 27.984375 -9.84375 C 28.992188 -11.90625 29.5 -14.429688 29.5 -17.421875 C 29.5 -20.410156 28.992188 -22.9375 27.984375 -25 C 26.972656 -27.070312 25.617188 -28.640625 23.921875 -29.703125 C 22.234375 -30.765625 20.34375 -31.296875 18.25 -31.296875 C 16.164062 -31.296875 14.269531 -30.757812 12.5625 -29.6875 C 10.863281 -28.625 9.507812 -27.0625 8.5 -25 C 7.5 -22.9375 7 -20.410156 7 -17.421875 C 7 -14.429688 7.5 -11.910156 8.5 -9.859375 C 9.507812 -7.804688 10.863281 -6.242188 12.5625 -5.171875 C 14.269531 -4.109375 16.164062 -3.578125 18.25 -3.578125 Z M 18.25 -3.578125 "/></g></g><g transform="translate(618.19717, 416.091113)"><g><path d="M 4.046875 0 L 4.046875 -34.875 L 9.203125 -34.875 L 23.4375 -12.46875 C 23.789062 -11.925781 24.222656 -11.210938 24.734375 -10.328125 C 25.253906 -9.453125 25.8125 -8.46875 26.40625 -7.375 C 27.007812 -6.28125 27.601562 -5.125 28.1875 -3.90625 L 27.59375 -3.71875 C 27.488281 -4.957031 27.40625 -6.175781 27.34375 -7.375 C 27.289062 -8.570312 27.253906 -9.679688 27.234375 -10.703125 C 27.222656 -11.722656 27.21875 -12.5625 27.21875 -13.21875 L 27.21875 -34.875 L 31.59375 -34.875 L 31.59375 0 L 26.40625 0 L 13.734375 -19.921875 C 13.203125 -20.765625 12.644531 -21.664062 12.0625 -22.625 C 11.476562 -23.59375 10.804688 -24.738281 10.046875 -26.0625 C 9.296875 -27.394531 8.390625 -29 7.328125 -30.875 L 8.078125 -31.125 C 8.148438 -29.382812 8.210938 -27.78125 8.265625 -26.3125 C 8.328125 -24.851562 8.375 -23.585938 8.40625 -22.515625 C 8.4375 -21.441406 8.453125 -20.59375 8.453125 -19.96875 L 8.453125 0 Z M 4.046875 0 "/></g></g><g transform="translate(653.842382, 416.091113)"><g/></g></g><g fill="#001f3f" fill-opacity="1"><g transform="translate(666.99577, 416.091113)"><g><path d="M 3.015625 0 L 3.015625 -34.875 L 26.265625 -34.875 L 26.265625 -28.890625 L 10.1875 -28.890625 L 10.1875 -19.40625 L 24.8125 -19.40625 L 24.8125 -13.546875 L 10.1875 -13.546875 L 10.1875 0 Z M 3.015625 0 "/></g></g><g transform="translate(695.081295, 416.091113)"><g><path d="M 17.390625 0.484375 C 14.503906 0.484375 11.984375 -0.0390625 9.828125 -1.09375 C 7.671875 -2.15625 5.992188 -3.640625 4.796875 -5.546875 C 3.609375 -7.460938 3.015625 -9.6875 3.015625 -12.21875 L 3.015625 -34.875 L 10.140625 -34.875 L 10.140625 -12.796875 C 10.140625 -11.441406 10.4375 -10.238281 11.03125 -9.1875 C 11.632812 -8.132812 12.484375 -7.304688 13.578125 -6.703125 C 14.671875 -6.109375 15.941406 -5.8125 17.390625 -5.8125 C 18.859375 -5.8125 20.132812 -6.109375 21.21875 -6.703125 C 22.300781 -7.304688 23.140625 -8.132812 23.734375 -9.1875 C 24.335938 -10.238281 24.640625 -11.441406 24.640625 -12.796875 L 24.640625 -34.875 L 31.78125 -34.875 L 31.78125 -12.21875 C 31.78125 -9.6875 31.179688 -7.460938 29.984375 -5.546875 C 28.796875 -3.640625 27.117188 -2.15625 24.953125 -1.09375 C 22.796875 -0.0390625 20.273438 0.484375 17.390625 0.484375 Z M 17.390625 0.484375 "/></g></g><g transform="translate(729.860537, 416.091113)"><g><path d="M 3.015625 0 L 3.015625 -34.875 L 10.90625 -34.875 L 21.984375 -17.1875 C 22.484375 -16.351562 23.015625 -15.425781 23.578125 -14.40625 C 24.148438 -13.382812 24.734375 -12.25 25.328125 -11 C 25.929688 -9.75 26.53125 -8.390625 27.125 -6.921875 L 26.359375 -6.5 C 26.265625 -7.75 26.175781 -9.09375 26.09375 -10.53125 C 26.019531 -11.976562 25.957031 -13.363281 25.90625 -14.6875 C 25.863281 -16.019531 25.84375 -17.128906 25.84375 -18.015625 L 25.84375 -34.875 L 33.125 -34.875 L 33.125 0 L 25.203125 0 L 15.171875 -16.03125 C 14.492188 -17.125 13.835938 -18.226562 13.203125 -19.34375 C 12.578125 -20.457031 11.914062 -21.703125 11.21875 -23.078125 C 10.53125 -24.453125 9.722656 -26.050781 8.796875 -27.875 L 9.78125 -28.0625 C 9.875 -26.363281 9.960938 -24.742188 10.046875 -23.203125 C 10.140625 -21.671875 10.207031 -20.285156 10.25 -19.046875 C 10.300781 -17.816406 10.328125 -16.820312 10.328125 -16.0625 L 10.328125 0 Z M 3.015625 0 "/></g></g><g transform="translate(765.997246, 416.091113)"><g><path d="M 15.3125 0 L 6.265625 0 L 6.265625 -6.125 L 14.953125 -6.125 C 17.210938 -6.125 19.101562 -6.53125 20.625 -7.34375 C 22.15625 -8.15625 23.300781 -9.398438 24.0625 -11.078125 C 24.820312 -12.753906 25.203125 -14.882812 25.203125 -17.46875 C 25.203125 -20.019531 24.820312 -22.128906 24.0625 -23.796875 C 23.300781 -25.472656 22.160156 -26.71875 20.640625 -27.53125 C 19.128906 -28.34375 17.25 -28.75 15 -28.75 L 6.109375 -28.75 L 6.109375 -34.875 L 15.421875 -34.875 C 18.929688 -34.875 21.945312 -34.175781 24.46875 -32.78125 C 26.988281 -31.382812 28.929688 -29.382812 30.296875 -26.78125 C 31.660156 -24.175781 32.34375 -21.070312 32.34375 -17.46875 C 32.34375 -13.84375 31.664062 -10.726562 30.3125 -8.125 C 28.957031 -5.519531 27.003906 -3.515625 24.453125 -2.109375 C 21.898438 -0.703125 18.851562 0 15.3125 0 Z M 10.1875 -34.875 L 10.1875 0 L 3.015625 0 L 3.015625 -34.875 Z M 10.1875 -34.875 "/></g></g><g transform="translate(800.37861, 416.091113)"><g/></g><g transform="translate(811.495797, 416.091113)"><g><path d="M 17.203125 -34.875 L 17.203125 0 L 10.109375 0 L 10.109375 -28.515625 L 9.921875 -28.515625 L 1.890625 -22.96875 L 1.890625 -29.453125 L 9.8125 -34.875 Z M 17.203125 -34.875 "/></g></g></g><path stroke-linecap="butt" transform="matrix(0, -0.748947, 0.748947, 0, 417.522605, 381.571749)" fill="none" stroke-linejoin="miter" d="M 0.00191788 1.002517 L 270.543094 1.002517 " stroke="#001f3f" stroke-width="2" stroke-opacity="1" stroke-miterlimit="4"/><path stroke-linecap="round" transform="matrix(0, -0.748947, 0.748947, 0, 417.522605, 381.571749)" fill="none" stroke-linejoin="round" d="M 277.041799 1.002517 C 277.041799 2.655879 275.69616 4.001518 274.042798 4.001518 C 272.38422 4.001518 271.043797 2.655879 271.043797 1.002517 C 271.043797 -0.656061 272.38422 -2.001699 274.042798 -2.001699 C 275.69616 -2.001699 277.041799 -0.656061 277.041799 1.002517 " stroke="#001f3f" stroke-width="2" stroke-opacity="1" stroke-miterlimit="4"/><g fill="#001f3f" fill-opacity="1"><g transform="translate(74.168304, 365.894263)"><g><path d="M 15.28125 0.609375 C 12.738281 0.609375 10.523438 0.1875 8.640625 -0.65625 C 6.765625 -1.507812 5.300781 -2.695312 4.25 -4.21875 C 3.207031 -5.738281 2.632812 -7.53125 2.53125 -9.59375 L 7.015625 -9.59375 C 7.109375 -8.207031 7.53125 -7.050781 8.28125 -6.125 C 9.03125 -5.195312 10.015625 -4.5 11.234375 -4.03125 C 12.460938 -3.570312 13.8125 -3.34375 15.28125 -3.34375 C 16.894531 -3.34375 18.328125 -3.597656 19.578125 -4.109375 C 20.835938 -4.628906 21.828125 -5.351562 22.546875 -6.28125 C 23.273438 -7.207031 23.640625 -8.289062 23.640625 -9.53125 C 23.640625 -10.625 23.34375 -11.523438 22.75 -12.234375 C 22.15625 -12.941406 21.335938 -13.53125 20.296875 -14 C 19.265625 -14.46875 18.078125 -14.878906 16.734375 -15.234375 L 12.59375 -16.390625 C 9.613281 -17.203125 7.34375 -18.34375 5.78125 -19.8125 C 4.21875 -21.289062 3.4375 -23.191406 3.4375 -25.515625 C 3.4375 -27.492188 3.957031 -29.21875 5 -30.6875 C 6.050781 -32.164062 7.476562 -33.316406 9.28125 -34.140625 C 11.09375 -34.960938 13.140625 -35.375 15.421875 -35.375 C 17.742188 -35.375 19.789062 -34.957031 21.5625 -34.125 C 23.332031 -33.300781 24.722656 -32.160156 25.734375 -30.703125 C 26.753906 -29.253906 27.296875 -27.601562 27.359375 -25.75 L 23.0625 -25.75 C 22.875 -27.5625 22.066406 -28.960938 20.640625 -29.953125 C 19.222656 -30.953125 17.4375 -31.453125 15.28125 -31.453125 C 13.78125 -31.453125 12.460938 -31.203125 11.328125 -30.703125 C 10.191406 -30.210938 9.304688 -29.535156 8.671875 -28.671875 C 8.035156 -27.816406 7.71875 -26.832031 7.71875 -25.71875 C 7.71875 -24.582031 8.066406 -23.648438 8.765625 -22.921875 C 9.460938 -22.203125 10.328125 -21.625 11.359375 -21.1875 C 12.398438 -20.75 13.4375 -20.390625 14.46875 -20.109375 L 18.046875 -19.140625 C 19.148438 -18.859375 20.28125 -18.476562 21.4375 -18 C 22.59375 -17.53125 23.660156 -16.925781 24.640625 -16.1875 C 25.628906 -15.457031 26.425781 -14.546875 27.03125 -13.453125 C 27.644531 -12.367188 27.953125 -11.0625 27.953125 -9.53125 C 27.953125 -7.59375 27.445312 -5.859375 26.4375 -4.328125 C 25.425781 -2.796875 23.976562 -1.585938 22.09375 -0.703125 C 20.207031 0.171875 17.9375 0.609375 15.28125 0.609375 Z M 15.28125 0.609375 "/></g></g></g><g fill="#001f3f" fill-opacity="1"><g transform="translate(104.313434, 365.894263)"><g><path d="M 2.03125 -30.984375 L 2.03125 -34.875 L 28.53125 -34.875 L 28.53125 -30.984375 L 17.515625 -30.984375 L 17.515625 0 L 13.109375 0 L 13.109375 -30.984375 Z M 2.03125 -30.984375 "/></g></g></g><g fill="#001f3f" fill-opacity="1"><g transform="translate(130.667018, 365.894263)"><g><path d="M 1.046875 0 L 13.765625 -34.875 L 18.8125 -34.875 L 31.625 0 L 26.984375 0 L 19.609375 -20.765625 C 19.140625 -22.078125 18.601562 -23.671875 18 -25.546875 C 17.40625 -27.429688 16.679688 -29.847656 15.828125 -32.796875 L 16.734375 -32.796875 C 15.878906 -29.828125 15.140625 -27.382812 14.515625 -25.46875 C 13.898438 -23.5625 13.382812 -21.992188 12.96875 -20.765625 L 5.71875 0 Z M 7.484375 -9.734375 L 7.484375 -13.59375 L 25.203125 -13.59375 L 25.203125 -9.734375 Z M 7.484375 -9.734375 "/></g></g></g><g fill="#001f3f" fill-opacity="1"><g transform="translate(161.748333, 365.894263)"><g><path d="M 18.375 0.484375 C 15.269531 0.484375 12.539062 -0.25 10.1875 -1.71875 C 7.84375 -3.195312 6.003906 -5.273438 4.671875 -7.953125 C 3.347656 -10.628906 2.6875 -13.785156 2.6875 -17.421875 C 2.6875 -21.085938 3.34375 -24.253906 4.65625 -26.921875 C 5.976562 -29.597656 7.804688 -31.675781 10.140625 -33.15625 C 12.472656 -34.632812 15.144531 -35.375 18.15625 -35.375 C 20 -35.375 21.722656 -35.09375 23.328125 -34.53125 C 24.941406 -33.976562 26.378906 -33.191406 27.640625 -32.171875 C 28.910156 -31.148438 29.960938 -29.9375 30.796875 -28.53125 C 31.640625 -27.125 32.210938 -25.570312 32.515625 -23.875 L 28.015625 -23.875 C 27.671875 -25 27.195312 -26.015625 26.59375 -26.921875 C 26 -27.835938 25.285156 -28.617188 24.453125 -29.265625 C 23.617188 -29.910156 22.671875 -30.410156 21.609375 -30.765625 C 20.554688 -31.117188 19.40625 -31.296875 18.15625 -31.296875 C 16.050781 -31.296875 14.15625 -30.753906 12.46875 -29.671875 C 10.789062 -28.585938 9.457031 -27.007812 8.46875 -24.9375 C 7.488281 -22.875 7 -20.367188 7 -17.421875 C 7 -14.492188 7.492188 -12 8.484375 -9.9375 C 9.472656 -7.882812 10.820312 -6.3125 12.53125 -5.21875 C 14.238281 -4.125 16.1875 -3.578125 18.375 -3.578125 C 20.34375 -3.578125 22.082031 -4 23.59375 -4.84375 C 25.101562 -5.6875 26.289062 -6.878906 27.15625 -8.421875 C 28.03125 -9.972656 28.46875 -11.789062 28.46875 -13.875 L 29.796875 -13.640625 L 19.40625 -13.640625 L 19.40625 -17.515625 L 32.765625 -17.515625 L 32.765625 -13.71875 C 32.765625 -10.863281 32.140625 -8.367188 30.890625 -6.234375 C 29.648438 -4.109375 27.945312 -2.457031 25.78125 -1.28125 C 23.625 -0.101562 21.15625 0.484375 18.375 0.484375 Z M 18.375 0.484375 "/></g></g><g transform="translate(197.346736, 365.894263)"><g/></g></g><g fill="#001f3f" fill-opacity="1"><g transform="translate(210.500127, 365.894263)"><g><path d="M 3.015625 0 L 3.015625 -34.875 L 16.90625 -34.875 C 19.445312 -34.875 21.570312 -34.488281 23.28125 -33.71875 C 25 -32.957031 26.289062 -31.898438 27.15625 -30.546875 C 28.03125 -29.203125 28.46875 -27.65625 28.46875 -25.90625 C 28.46875 -24.550781 28.195312 -23.359375 27.65625 -22.328125 C 27.113281 -21.296875 26.367188 -20.453125 25.421875 -19.796875 C 24.484375 -19.140625 23.40625 -18.671875 22.1875 -18.390625 L 22.1875 -18.09375 C 23.53125 -18.03125 24.78125 -17.648438 25.9375 -16.953125 C 27.09375 -16.265625 28.023438 -15.300781 28.734375 -14.0625 C 29.441406 -12.832031 29.796875 -11.367188 29.796875 -9.671875 C 29.796875 -7.804688 29.34375 -6.144531 28.4375 -4.6875 C 27.53125 -3.226562 26.179688 -2.082031 24.390625 -1.25 C 22.609375 -0.414062 20.398438 0 17.765625 0 Z M 10.15625 -5.828125 L 16.453125 -5.828125 C 18.492188 -5.828125 20.003906 -6.226562 20.984375 -7.03125 C 21.960938 -7.832031 22.453125 -8.914062 22.453125 -10.28125 C 22.453125 -11.257812 22.21875 -12.125 21.75 -12.875 C 21.28125 -13.625 20.609375 -14.207031 19.734375 -14.625 C 18.859375 -15.050781 17.820312 -15.265625 16.625 -15.265625 L 10.15625 -15.265625 Z M 10.15625 -20.265625 L 15.96875 -20.265625 C 17 -20.265625 17.910156 -20.441406 18.703125 -20.796875 C 19.492188 -21.160156 20.113281 -21.679688 20.5625 -22.359375 C 21.019531 -23.046875 21.25 -23.847656 21.25 -24.765625 C 21.25 -26.054688 20.796875 -27.097656 19.890625 -27.890625 C 18.984375 -28.691406 17.707031 -29.09375 16.0625 -29.09375 L 10.15625 -29.09375 Z M 10.15625 -20.265625 "/></g></g><g transform="translate(242.026129, 365.894263)"><g><path d="M 3.015625 0 L 3.015625 -34.875 L 10.1875 -34.875 L 10.1875 -6 L 25.421875 -6 L 25.421875 0 Z M 3.015625 0 "/></g></g><g transform="translate(269.035042, 365.894263)"><g><path d="M 17.390625 0.484375 C 14.503906 0.484375 11.984375 -0.0390625 9.828125 -1.09375 C 7.671875 -2.15625 5.992188 -3.640625 4.796875 -5.546875 C 3.609375 -7.460938 3.015625 -9.6875 3.015625 -12.21875 L 3.015625 -34.875 L 10.140625 -34.875 L 10.140625 -12.796875 C 10.140625 -11.441406 10.4375 -10.238281 11.03125 -9.1875 C 11.632812 -8.132812 12.484375 -7.304688 13.578125 -6.703125 C 14.671875 -6.109375 15.941406 -5.8125 17.390625 -5.8125 C 18.859375 -5.8125 20.132812 -6.109375 21.21875 -6.703125 C 22.300781 -7.304688 23.140625 -8.132812 23.734375 -9.1875 C 24.335938 -10.238281 24.640625 -11.441406 24.640625 -12.796875 L 24.640625 -34.875 L 31.78125 -34.875 L 31.78125 -12.21875 C 31.78125 -9.6875 31.179688 -7.460938 29.984375 -5.546875 C 28.796875 -3.640625 27.117188 -2.15625 24.953125 -1.09375 C 22.796875 -0.0390625 20.273438 0.484375 17.390625 0.484375 Z M 17.390625 0.484375 "/></g></g><g transform="translate(303.814284, 365.894263)"><g><path d="M 3.015625 0 L 3.015625 -34.875 L 26.75 -34.875 L 26.75 -28.890625 L 10.1875 -28.890625 L 10.1875 -20.546875 L 25.484375 -20.546875 L 25.484375 -14.671875 L 10.1875 -14.671875 L 10.1875 -6 L 26.78125 -6 L 26.78125 0 Z M 3.015625 0 "/></g></g></g><path stroke-linecap="butt" transform="matrix(0.00000000130716, 0.748947, -0.748947, 0.00000000130716, 419.023759, 417.095814)" fill="none" stroke-linejoin="miter" d="M 0.00245952 1.001835 L 277.016262 1.001835 " stroke="#001f3f" stroke-width="2" stroke-opacity="1" stroke-miterlimit="4"/><path stroke-linecap="round" transform="matrix(0.00000000130716, 0.748947, -0.748947, 0.00000000130716, 419.023759, 417.095814)" fill="none" stroke-linejoin="round" d="M 283.514967 1.001835 C 283.514967 2.655198 282.174544 4.000836 280.515966 4.000836 C 278.862604 4.000836 277.516965 2.655198 277.516965 1.001835 C 277.516965 -0.656743 278.862604 -2.002381 280.515966 -2.002381 C 282.174544 -2.002381 283.514967 -0.656743 283.514967 1.001835 " stroke="#001f3f" stroke-width="2" stroke-opacity="1" stroke-miterlimit="4"/></svg>