<svg xmlns="http://www.w3.org/2000/svg" xmlns:xlink="http://www.w3.org/1999/xlink" width="2000" zoomAndPan="magnify" viewBox="0 0 1500 1499.999933" height="2000" preserveAspectRatio="xMidYMid meet" version="1.0"><defs><g/><clipPath id="39189ce651"><rect x="0" width="737" y="0" height="1164"/></clipPath></defs><g transform="matrix(1, 0, 0, 1, 382, 168)"><g clip-path="url(#39189ce651)"><g fill="#001f3f" fill-opacity="1"><g transform="translate(0.106983, 927.589268)"><g><path d="M 368.125 9.859375 C 306.144531 9.859375 250.425781 -4.378906 200.96875 -32.859375 C 151.507812 -61.347656 112.457031 -102.359375 83.8125 -155.890625 C 55.164062 -209.421875 40.84375 -273.90625 40.84375 -349.34375 C 40.84375 -425.101562 55.164062 -489.820312 83.8125 -543.5 C 112.457031 -597.1875 151.507812 -638.269531 200.96875 -666.75 C 250.425781 -695.238281 306.144531 -709.484375 368.125 -709.484375 C 430.101562 -709.484375 485.742188 -695.238281 535.046875 -666.75 C 584.347656 -638.269531 623.320312 -597.1875 651.96875 -543.5 C 680.613281 -489.820312 694.9375 -425.101562 694.9375 -349.34375 C 694.9375 -273.90625 680.613281 -209.34375 651.96875 -155.65625 C 623.320312 -101.96875 584.347656 -60.957031 535.046875 -32.625 C 485.742188 -4.300781 430.101562 9.859375 368.125 9.859375 Z M 368.125 -117.390625 C 404.4375 -117.390625 436.207031 -126.3125 463.4375 -144.15625 C 490.675781 -162 511.882812 -188.210938 527.0625 -222.796875 C 542.25 -257.390625 549.84375 -299.570312 549.84375 -349.34375 C 549.84375 -399.425781 542.25 -441.84375 527.0625 -476.59375 C 511.882812 -511.34375 490.675781 -537.640625 463.4375 -555.484375 C 436.207031 -573.328125 404.4375 -582.25 368.125 -582.25 C 332.125 -582.25 300.425781 -573.25 273.03125 -555.25 C 245.644531 -537.25 224.359375 -510.953125 209.171875 -476.359375 C 193.992188 -441.765625 186.40625 -399.425781 186.40625 -349.34375 C 186.40625 -299.570312 193.992188 -257.46875 209.171875 -223.03125 C 224.359375 -188.601562 245.644531 -162.390625 273.03125 -144.390625 C 300.425781 -126.390625 332.125 -117.390625 368.125 -117.390625 Z M 368.125 -117.390625 "/></g></g></g></g></g><path stroke-linecap="butt" transform="matrix(0, 0.75, -0.75, 0, 753.745864, 0.0040541)" fill="none" stroke-linejoin="miter" d="M -0.000197129 4.999695 L 567.432143 4.999695 " stroke="#001f3f" stroke-width="10" stroke-opacity="1" stroke-miterlimit="4"/><path stroke-linecap="butt" transform="matrix(0.00257257, 0.749996, -0.749996, 0.00257257, 753.745048, 1062.687896)" fill="none" stroke-linejoin="miter" d="M -0.00204938 4.998629 L 583.074351 4.998633 " stroke="#001f3f" stroke-width="10" stroke-opacity="1" stroke-miterlimit="4"/></svg>