<svg width="77" height="107" xmlns="http://www.w3.org/2000/svg" xmlns:xlink="http://www.w3.org/1999/xlink" xml:space="preserve" overflow="hidden"><g transform="translate(-1683 -653)"><path d="M1.21563 49.218C0 51.125 0.0911726 57.2488 0.0455863 59.0114-1.26122 88.7565 27.9976 117.613 50.5704 102.645 45.7458 98.8235 45.7458 98.907 40.1995 99.1274 23.7505 99.7884 14.0102 89.5238 9.54273 78.1653 6.45806 71.2741 5.28041 62.9622 5.90342 55.2278 6.42767 52.8269 3.9812 51.7556 3.05428 49.9246 2.09697 48.8609 1.68669 48.4582 1.20804 49.2104M51.8316 17.4368C47.6681 13.8202 34.5772 12.9465 27.8228 15.6893 27.6329 15.7653 23.4162 20.2175 23.3098 24.4115 33.5971 19.0703 44.7201 21.1976 55.6836 26.8123 55.9648 26.9567 53.4423 18.8347 51.8316 17.4368M76.357 36.469C76.357 36.1499 75.7796 35.6029 75.4453 35.5801 75.149 35.5573 74.6703 36.0435 74.5412 36.4386 73.675 39.9868 72.5582 42.7447 70.8259 46.0117 69.3367 42.6232 72.1175 38.3229 72.2467 34.6684 72.9304 29.8894 72.5809 24.9965 72.4214 20.1719 72.0643 17.0113 70.8183 11.4649 68.4782 9.953 66.9131 10.6368 70.2257 18.8499 68.7897 22.9679 65.4011 14.732 61.7086 6.61001 55.4101 1.13966 54.7491 0.547035 54.0349-0.638208 52.8345 0.440667 58.1453 9.43636 65.4999 17.2848 66.5104 28.6358 67.2777 29.8818 66.6471 39.1434 64.968 38.9459 64.2159 38.9611 64.2159 38.3609 64.1095 37.7986 62.1189 29.5171 61.891 17.5431 53.7006 14.5952 53.5639 17.5431 55.7292 19.4198 56.4054 22.0714 57.0588 24.0696 57.8414 26.3641 58.2821 28.4686 58.5556 29.935 58.9734 31.3634 58.3808 32.8677 55.9116 31.6977 54.4908 27.8836 51.6568 27.8684 50.8971 36.2183 72.505 45.4115 57.659 55.5469 56.7093 55.8812 53.7386 57.9857 53.6702 55.7596 53.1612 51.7328 49.9474 43.3298 46.422 42.5092 46.1029 45.0316 47.8048 47.045 48.0935 49.4003 48.7165 53.7918 48.1847 58.0009 45.837 61.625 44.1123 64.2842 41.3999 66.5256 41.3999 70.1269 41.3999 75.0198 41.4303 74.8527 41.0201 80.6345 40.9213 82.0249 38.8927 82.0553 38.2089 81.2651 37.9202 79.6696 36.6362 78.53 36.8945 76.6837 38.8167 61.8302 25.2396 61.9518 31.4317 45.2748 31.7053 44.3175 32.2675 41.947 30.7707 42.6156 25.5435 46.8703 24.9737 58.8367 22.4892 56.5422 20.0732 55.4025 17.3304 53.6323 16.1679 50.8059 12.2551 40.0931 27.2986 36.9705 26.2501 27.838 23.9784 28.7649 22.5956 31.0595 20.4227 32.8753 19.83 28.1115 21.3496 23.6441 22.9603 19.4122 23.5225 17.9306 24.7913 16.7378 24.2139 14.9523 18.3409 16.1527 15.7197 23.5301 15.1119 29.7754 14.0482 32.8829 14.2153 36.8717 13.3872 40.3894 10.5988 29.35 15.4082 17.771 20.3315 8.58542 21.4711 5.44756 24.7837 3.61651 25.232 0.281115 18.1205 2.04378 12.7566 16.016 9.25401 23.173 9.14765 23.1426 9.04888 23.1198 8.94251 23.0894 8.45625 18.3789 10.2569 14.0634 10.5456 9.37558 6.29091 11.4498 5.69828 17.2468 5.11326 21.8586 3.27461 29.7147 7.06587 38.7027 8.40307 46.3005 8.23592 46.3612 8.07637 46.422 7.90922 46.4828 5.71348 42.9347 4.22433 39.3941 3.02389 35.1166 0.387483 38.1481 2.3173 42.0685 3.08467 45.5939 6.92911 55.2962 15.6285 58.9431 22.6488 64.383 30.5884 71.3349 30.2313 75.2326 33.9238 84.912 38.5812 96.1643 43.6944 87.9359 46.2397 80.2774 48.8989 62.4684 66.0089 61.5263 73.6598 48.7925 76.0911 45.2368 76.5849 40.9213 76.3646 36.4766" fill="#FFFFFF" transform="matrix(1 0 0 1.0025 1683.3 653)"/></g></svg>